<svg width="305" height="60" viewBox="0 0 305 60" fill="none" xmlns="http://www.w3.org/2000/svg">
<g clip-path="url(#clip0_1063_180)">
<path d="M234.699 39.5892C231.368 39.5892 228.038 39.5537 224.708 39.609C223.625 39.6287 222.554 39.9606 222.46 38.2974C222.365 36.6618 222.882 35.5912 224.672 35.5161C227.694 35.3858 230.716 35.2752 233.743 35.1527C233.999 35.1408 234.26 35.1092 234.584 34.7537C234.011 34.6154 233.438 34.3705 232.862 34.3626C230.096 34.3231 227.331 34.3073 224.569 34.3626C222.001 34.4139 221.409 34.9907 221.353 37.4717C221.302 39.8381 221.267 42.2085 221.393 44.571C221.456 45.7166 221.132 46.1512 220.022 46.1354C218.959 46.1236 217.786 46.329 217.774 44.7132C217.754 42.5403 217.766 40.3675 217.754 38.1947C217.735 34.8959 216.802 33.9596 213.547 33.9556C210.031 33.9517 206.515 33.9556 202.999 33.9556C202.999 34.2124 202.999 34.4692 202.999 34.73C206.223 34.73 209.442 34.7142 212.666 34.7339C215.1 34.7497 215.937 35.3937 216.285 37.4124C216.589 39.1902 216.087 39.8342 214.262 39.8579C211.169 39.8934 208.075 39.8776 204.982 39.8855C204.358 39.8855 203.734 39.8855 203.11 39.8855L203.058 40.4268C203.71 40.5058 204.358 40.6401 205.01 40.652C207.973 40.6954 210.936 40.6322 213.895 40.7428C216.273 40.8297 217.462 42.6944 216.478 44.8436C216.23 45.3927 215.289 45.93 214.649 45.9497C209.454 46.088 204.255 46.1552 199.056 46.1354C196.587 46.1275 195.374 44.9937 195.702 42.6352C196.141 39.4826 196.773 36.3102 197.756 33.2919C200.7 24.2766 203.678 15.2692 206.993 6.38424C208.818 1.49337 210.687 0.165963 215.439 0.339791C218.229 0.442507 221.026 0.26868 223.815 0.379297C227.825 0.541273 229.78 1.9714 231.009 5.88252C232.905 11.9191 234.718 17.9833 236.382 24.0909C237.871 29.5586 239.143 35.0895 240.439 40.6085C240.676 41.6159 240.743 42.7181 240.609 43.7413C240.427 45.1359 239.649 46.1828 238.057 46.1907C233.711 46.2105 229.369 46.2302 225.024 46.1868C223.285 46.167 222.033 44.3142 222.183 42.1808C222.282 40.7665 223.309 40.411 225.312 40.5137C228.441 40.6717 231.59 40.5571 234.726 40.5571C234.718 40.2371 234.711 39.9171 234.699 39.5932V39.5892ZM217.687 22.6806C220.018 24.6164 222.124 24.81 224.55 23.3917C228.421 21.1319 229.338 17.2366 228.149 13.5309C226.979 9.8845 224.166 7.30869 220.346 6.79906C216.328 6.26573 212.891 8.08301 210.596 11.4489C206.985 16.7428 209.545 24.7388 215.507 27.125C218.268 28.2312 221.053 28.4208 223.787 27.0263C223.4 26.9275 222.989 26.8761 222.641 27.0065C219.023 28.3616 212.856 25.5013 211.098 21.9141C209.367 18.3744 209.956 13.3136 212.745 10.3625C215.076 7.89733 220.232 7.02029 223.321 8.67956C226.347 10.3033 227.912 12.9857 227.967 16.3517C228.01 19.042 226.869 21.2978 224.474 22.7912C222.199 24.2095 219.951 23.8855 217.687 22.6845V22.6806Z" fill="#CAA593"/>
<path d="M23.0914 24.6875C23.0914 24.1225 23.2415 23.5062 23.0677 23.0005C21.8865 19.603 17.8331 18.6628 15.0637 21.1003C9.82917 25.7067 11.8598 34.4731 18.7852 37.1517C22.5936 38.6253 26.7655 37.1872 29.5428 34.1531C35.8756 27.2356 33.1892 13.7758 21.6257 11.2711C15.1862 9.87657 9.01534 12.2746 5.12002 18.805C1.42224 25.0035 1.43014 31.4351 4.58669 37.8944C4.80002 38.3329 5.00151 38.7793 5.04496 39.3048C2.93533 36.6183 1.11014 33.7502 0.470141 30.3566C-1.63949 19.1447 3.35015 8.22126 16.0514 5.31755C28.3576 2.5047 41.1971 10.1373 43.4529 22.886C45.7838 36.0653 34.6272 48.0712 21.8944 46.9532C14.8228 46.3329 9.66719 42.3309 6.5304 36.1482C3.55558 30.2815 4.15212 24.3635 7.94867 18.9077C13.0963 11.5082 23.3917 11.2356 28.4327 18.3309C32.1067 23.5023 30.6608 31.3166 25.4499 34.4455C21.8786 36.5907 18.5482 35.9823 15.5141 32.6243C13.0845 29.9378 12.9186 25.5013 15.1191 22.645C16.3951 20.9897 18.1768 20.5907 20.0534 20.962C21.9576 21.3373 22.6134 22.9097 23.0993 24.6875H23.0914Z" fill="#CAA593"/>
<path d="M95.9607 33.0351C94.6057 30.1393 92.6738 27.8084 89.5489 26.5481C86.2975 25.2365 82.6432 26.4928 80.4703 28.5709C78.0684 30.8701 77.5864 34.6193 79.0323 37.6375C80.3084 40.3003 83.6308 41.7343 86.8664 41.0193C89.2802 40.4859 91.1844 37.9496 91.2674 35.1605C91.3385 32.7664 89.4619 30.8662 87.3444 31.0005C88.1503 31.5575 89.3711 32.0079 89.8926 32.877C90.4417 33.7936 90.6274 35.1684 90.4338 36.2469C89.9913 38.7398 87.4748 40.4306 84.8832 40.3003C82.4101 40.1738 79.9133 37.8153 79.5577 35.2751C78.8269 30.0168 84.0654 26.0109 89.2763 27.84C93.3494 29.2741 95.2812 32.6479 94.9059 37.681C94.6847 40.6637 90.9671 44.2825 87.5261 45.0489C78.6372 47.0321 71.8343 39.8104 71.8975 31.8815C71.8975 31.4864 71.9725 31.0835 71.9251 30.6963C71.7039 28.9304 72.3202 28.2588 74.2204 28.3417C78.0288 28.5116 80.8891 26.718 82.7459 23.4232C84.5039 20.3062 84.097 17.2523 82.2047 14.3289C79.6446 10.3703 72.8733 9.38268 70.096 14.5066C68.9859 16.557 69.0609 18.8168 70.4911 20.8039C71.4392 22.1195 72.6204 23.0637 74.4456 22.8859C76.579 22.6765 77.6733 21.0963 76.8911 18.4731C76.8397 20.6815 76.0851 21.8429 74.1454 21.7402C72.4269 21.6494 71.0165 20.2983 70.7083 18.4968C70.2975 16.0671 71.4669 13.6731 73.5251 12.7328C75.8362 11.6819 78.9493 12.2074 80.4427 13.9061C82.8763 16.6755 82.9434 20.6657 80.5454 23.8341C78.9256 25.9792 74.7261 27.6899 71.4945 26.1728C67.8165 24.4464 65.7582 21.7165 65.695 17.7817C65.6239 13.4163 67.5715 9.92391 71.5103 7.84194C77.5192 4.66959 83.0777 6.43156 87.6052 10.4335C88.2057 10.9629 88.5336 12.3614 88.3123 13.1674C86.6768 19.1249 91.0185 25.2326 97.1973 25.1141C99.8521 25.0627 102.286 23.9091 103.542 21.2266C104.601 18.9669 104.889 16.7111 103.416 14.4948C101.812 12.0849 98.2007 11.2513 95.7513 12.7289C94.0249 13.7718 93.5943 15.4429 94.3489 16.9955C94.8308 15.9684 95.1153 14.3131 96.099 13.4953C98.0862 11.84 100.164 12.3219 101.981 14.317C103.593 16.0869 103.724 18.9985 102.274 20.8316C100.243 23.4034 96.34 24.2054 93.776 22.5778C90.3864 20.4286 88.9286 16.241 90.4417 13.0173C92.2708 9.11799 95.4234 7.26514 99.3385 7.47453C104.225 7.73527 107.378 11.6108 108.299 14.8701C110.843 23.8617 103.953 31.8933 95.9647 33.0272L95.9607 33.0351Z" fill="#CAA593"/>
<path d="M159.708 40.9245C162.019 39.443 163.825 34.6114 163.03 31.688C162.501 29.7442 161.624 27.8914 161.146 25.9398C160.336 22.6489 160.684 19.4371 162.691 16.6084C163.67 15.2297 164.84 13.9615 166.068 12.7961C166.653 12.243 167.578 12.0494 168.348 11.6938C168.229 12.2983 168.056 12.8988 168.004 13.5072C167.684 17.2603 167.878 20.8869 169.849 24.3003C171.41 27.0025 172.761 29.8391 174.033 32.6914C175.238 35.3857 173.792 39.9882 171.027 42.244C169.474 43.5122 167.712 44.5314 165.989 45.5665C165.642 45.7759 165.037 45.5586 164.547 45.5388C164.709 45.0608 164.745 44.4761 165.053 44.1245C168.996 39.6208 168.632 33.521 166.317 29.0884C166.649 31.4193 167.04 33.3196 167.167 35.2396C167.617 42.0149 162.489 45.8154 156.761 46.9453C154.402 47.4114 151.913 47.6445 149.527 47.447C145.241 47.0914 140.014 45.3571 138.592 40.806C138.078 39.1625 138.015 37.3769 137.699 35.362C137.296 39.0756 137.573 42.3625 139.935 45.3216C134.151 45.7245 129.399 41.9003 131.346 34.6272C132.208 31.4154 133.282 28.2588 134.013 25.0193C134.345 23.5576 134.068 21.9615 134.068 19.9862C134.91 20.2627 135.759 20.3852 136.443 20.7882C141.037 23.4746 142.629 27.7018 142.598 32.8099C142.582 35.3976 142.337 38.0603 143.977 40.3951C147.378 45.2425 153.948 45.9379 158.377 42.726C158.511 42.6272 158.531 42.3744 158.606 42.1927C158.973 41.7699 159.341 41.3472 159.712 40.9206L159.708 40.9245Z" fill="#CAA593"/>
<path d="M159.708 40.9245C159.341 41.3473 158.973 41.77 158.602 42.1966C156.37 42.7734 154.41 44.0969 151.87 43.9033C148.117 43.6149 145.118 41.7897 143.862 38.3843C142.61 34.9907 143.574 31.4312 146.41 28.9621C148.84 27.5714 151.428 27.5003 154.09 28.0692C154.683 28.5709 155.295 29.0529 155.868 29.5784C158.234 31.7314 158.748 34.5561 157.306 37.3927C156.457 39.0638 153.782 40.5137 152.044 40.2411C149.768 39.8855 148.164 38.4673 148.069 36.1008C148.018 34.7655 148.761 33.3947 149.168 31.9645C147.714 32.9798 147.264 34.4021 147.343 36.1087C147.433 37.9932 148.318 39.3917 149.982 40.1779C152.091 41.1774 154.185 40.968 156.125 39.6485C158.693 37.8984 158.942 35.2396 158.4 32.6085C157.95 30.408 156.709 28.484 154.177 27.9665C153.466 27.7137 152.715 27.5398 152.056 27.1922C151.301 26.7932 150.128 26.3428 150.009 25.7423C149.654 23.925 149.421 21.9813 149.705 20.1719C150.009 18.2519 150.957 16.4346 151.625 14.5739C151.048 15.0085 150.582 15.522 150.337 16.1304C149.148 19.1132 147.244 21.9774 148.903 25.4421C149.476 26.6351 148.638 27.283 147.568 27.5596C146.774 27.765 145.912 27.8085 146.458 29.0016C144.158 28.409 142.902 26.6351 142.641 24.2213C142.116 19.366 144.237 15.4667 147.252 12.1127C150.234 8.79018 152.652 5.32548 153.419 0.849428C153.478 0.505724 153.952 0.0237482 154.264 4.44634e-05C154.576 -0.0276099 155.082 0.363502 155.244 0.699305C157.472 5.23067 158.373 9.81339 156.634 14.8425C155.769 17.3472 154.718 20.0179 155.726 22.8781C156.354 24.6598 157.29 26.0979 159.151 26.5522C160.581 26.9038 161.205 27.7611 161.592 29.0411C162.73 32.7942 162.726 36.3734 160.198 39.6445C159.929 39.9922 159.858 40.49 159.696 40.9206L159.708 40.9245Z" fill="#CAA593"/>
<path d="M271.412 26.4534C272.506 26.5087 273.209 25.2287 273.34 23.8816C273.49 22.3369 272.395 21.3611 270.922 20.9542C269.472 20.5551 267.832 21.4993 267.145 23.0677C266.205 25.2169 266.75 27.8322 268.374 28.966C270.629 30.5384 273.15 30.2579 275.362 28.251C277.112 26.6628 277.618 24.644 277.456 22.7675C279.834 22.9532 282.24 23.6248 284.417 23.1823C286.93 22.6727 288.091 20.2588 288.636 17.8055C294.657 19.3423 297.909 16.644 297.62 10.8208C300.35 11.5438 304.399 18.2954 304.154 21.8628C302.748 21.4124 301.393 20.8277 299.979 20.5551C294.938 19.5951 290.651 21.6021 286.554 24.2016C283.03 26.4416 279.649 28.9463 275.967 30.89C271.819 33.0826 267.437 33.0154 263.167 30.8268C262.065 30.2618 261.436 29.5665 261.571 28.247C261.772 26.2322 261.662 24.1621 262.068 22.1907C263.321 16.0988 266.77 14.724 272.992 17.0944C275.781 18.1571 277.097 20.6144 276.63 23.763C276.224 26.5364 274.501 28.1324 271.977 29.0055C270.242 29.606 268.038 28.3221 267.548 26.4574C266.944 24.166 268.152 21.5744 270.065 21.4124C270.685 21.3611 271.597 21.9181 271.961 22.4712C272.352 23.0638 272.447 24.0159 272.308 24.7428C272.17 25.4776 271.586 26.1255 271.408 26.4416L271.412 26.4534Z" fill="#CAA593"/>
<path d="M304.534 27.6307C298.296 24.4979 293.946 27.8322 289.77 31.3443C283.252 36.8278 275.734 39.2021 267.311 39.1389C266.177 39.131 265.419 38.811 264.925 37.8668C263.894 35.8954 262.898 33.9082 261.642 31.447C262.851 31.5616 263.352 31.4628 263.688 31.6603C270.155 35.4292 275.71 33.0154 281.122 29.211C285.271 26.2954 289.087 22.7714 294.25 21.606C297.608 20.8475 300.939 20.9028 303.87 22.89C305.462 23.9645 305.075 25.6909 304.538 27.6347L304.534 27.6307Z" fill="#CAA593"/>
<path d="M266.754 40.4031C267.987 40.1937 268.619 39.9803 269.247 39.9961C277.855 40.2095 284.958 36.6381 291.339 31.2455C294.167 28.8554 297.415 27.5833 301.101 28.1008C302.306 28.2707 303.716 29.049 304.439 30.005C305.261 31.0914 304.107 33.0786 302.756 33.1023C298.746 33.1695 295.953 35.5951 293.077 37.8668C288.779 41.2643 284.03 43.6742 278.716 45.0964C273.723 46.4357 270.614 43.4529 266.758 40.4031H266.754Z" fill="#CAA593"/>
<path d="M276.239 18.3546C273.233 15.5102 269.903 13.8944 265.687 15.8223C265.66 15.3284 265.541 15.0163 265.648 14.8504C270.128 7.81435 276.69 5.59014 283.805 11.2395C285.385 12.4919 286.499 14.5699 287.305 16.4899C288.107 18.3902 286.799 20.9067 285.014 22.0287C283.07 23.2534 280.696 23.1823 278.946 21.9062C277.326 20.725 277.093 19.0539 277.48 17.3195C277.816 15.8183 278.874 14.803 280.474 14.5897C282.082 14.3763 283.477 15.04 283.963 16.5136C284.271 17.442 283.765 18.6391 283.619 19.7413C284.457 19.5833 284.919 18.6588 284.911 17.4894C284.903 15.9013 282.987 13.8865 281.304 13.8588C279.273 13.8272 277.673 14.2065 276.239 18.3507V18.3546Z" fill="#CAA593"/>
<path d="M292.623 14.7754C293.994 13.0411 293.891 11.6346 292.358 10.4613C290.418 8.97586 288.692 9.46574 286.472 12.2786C283.299 9.21685 279.432 7.52993 275.003 6.57783C275.663 6.27758 276.295 5.89042 276.982 5.69684C282.73 4.07314 288.348 4.21141 293.705 7.12697C295.854 8.29635 297.142 12.1285 296.309 14.6015C295.605 16.6875 293.496 17.8924 290.987 17.7937C288.38 17.6909 286.562 13.8312 287.613 11.9151C288.435 10.4099 289.818 9.8608 291.394 10.5522C293.109 11.3028 293.417 12.4011 292.623 14.7793V14.7754Z" fill="#CAA593"/>
<path d="M278.223 46.2223C284.962 45.1714 290.13 41.3472 295.242 37.3334C296.854 36.0652 298.774 35.1685 300.611 34.2164C301.188 33.9161 301.958 33.9872 303.135 33.8213C301.907 38.4356 298.932 41.1892 295.53 43.4174C290.24 46.886 284.512 48.486 278.223 46.2223Z" fill="#CAA593"/>
<path d="M11.1012 55.2259C11.2711 55.2259 11.4015 55.2733 11.4963 55.3642C11.5911 55.4551 11.6385 55.5854 11.6385 55.7474C11.6385 55.7869 11.6385 55.8304 11.6267 55.8738C11.6187 55.9173 11.6108 55.9529 11.599 55.9845C11.5318 55.9726 11.4568 55.9647 11.3778 55.9568C11.2948 55.9489 11.2 55.945 11.0854 55.945C10.8642 55.945 10.6429 55.9647 10.4178 56.0042C10.1926 56.0437 9.97924 56.0753 9.77381 56.099C9.65529 56.3716 9.54862 56.6324 9.44986 56.8892C9.35109 57.142 9.26813 57.3751 9.20097 57.5845C9.13381 57.7938 9.0785 57.9756 9.03899 58.1296C8.99948 58.2837 8.97973 58.3983 8.97183 58.4773C9.38665 58.3825 9.80541 58.3035 10.2281 58.2363C10.6508 58.1692 11.0933 58.1376 11.5595 58.1376C11.6148 58.2205 11.6622 58.3153 11.7017 58.4141C11.7412 58.5129 11.761 58.6195 11.761 58.7341V58.8329C11.761 58.8684 11.757 58.904 11.7452 58.9356H10.1886C10.0385 58.9356 9.88442 58.9435 9.73035 58.9593C9.57628 58.9751 9.4143 58.9988 9.24442 59.0264C9.07455 59.0541 8.88097 59.0857 8.66368 59.1252C8.42664 59.0343 8.20146 58.8092 7.98022 58.4496C8.06714 58.264 8.18961 57.9835 8.34368 57.6082C8.49776 57.2329 8.69924 56.7272 8.94023 56.0951C8.71109 56.024 8.55702 55.8936 8.4859 55.7119C8.50961 55.6882 8.58467 55.6526 8.70714 55.6171C8.82961 55.5775 8.97973 55.538 9.16146 55.4985C9.23652 55.297 9.30368 55.1232 9.35899 54.9771C9.4143 54.8269 9.46171 54.6887 9.50121 54.5583C9.54072 54.4279 9.58023 54.3015 9.61183 54.1751C9.64344 54.0487 9.67899 53.9143 9.70665 53.7642C9.52887 53.7642 9.38665 53.7208 9.28393 53.6299C9.18121 53.539 9.12986 53.4205 9.12986 53.2743C9.12986 53.2309 9.13776 53.1835 9.14961 53.1242C9.16146 53.0649 9.17726 53.0175 9.19307 52.9741C9.29578 52.982 9.39455 52.9859 9.48936 52.9859H10.7694C11.0499 52.9859 11.3066 52.9741 11.5358 52.9464C11.7649 52.9188 11.9585 52.8951 12.1244 52.8714C12.2904 52.8477 12.4128 52.8358 12.4997 52.8358C12.6183 52.8358 12.721 52.899 12.8158 53.0215C12.9106 53.144 12.9778 53.3178 13.0252 53.543C12.8671 53.5232 12.7368 53.5114 12.638 53.5114H12.3733C12.0928 53.5114 11.836 53.5272 11.6029 53.5548C11.3699 53.5825 11.1447 53.6101 10.9313 53.6417C10.8997 53.6891 10.8642 53.7484 10.8286 53.8195C10.7891 53.8906 10.7417 53.9894 10.6785 54.1198C10.6153 54.2462 10.5402 54.4082 10.4533 54.6017C10.3664 54.7953 10.2558 55.0363 10.1254 55.3287C10.319 55.2971 10.5047 55.2733 10.6745 55.2575C10.8444 55.2417 10.9906 55.2299 11.1091 55.2299L11.1012 55.2259Z" fill="#CAA593"/>
<path d="M14.1273 53.8431C13.9219 53.8431 13.7638 53.7838 13.6532 53.6692C13.5426 53.5547 13.4873 53.4124 13.4873 53.2505C13.4873 53.211 13.4952 53.1596 13.5071 53.1043C13.5189 53.049 13.5347 52.9976 13.5584 52.9581C13.6256 52.9739 13.7243 52.9897 13.8547 52.9937C13.9851 53.0016 14.1392 53.0055 14.313 53.0055H15.2019C15.5337 53.0055 15.8498 52.9897 16.15 52.9581C16.4503 52.9265 16.7189 52.8989 16.9481 52.8712C17.1772 52.8436 17.3273 52.8278 17.3945 52.8278C17.5841 52.8278 17.7224 52.8989 17.8053 53.0411C17.8883 53.1833 17.9515 53.369 17.995 53.606C17.8606 53.5902 17.7303 53.5823 17.5999 53.5823H16.7703C16.6043 53.5823 16.4345 53.5942 16.2685 53.6139C16.1974 53.7641 16.1184 53.9379 16.0315 54.1433C15.9446 54.3448 15.8577 54.5581 15.7747 54.7794C15.6918 55.0006 15.6088 55.2179 15.5337 55.4391C15.4547 55.6564 15.3915 55.8539 15.3322 56.0278C15.2177 56.3675 15.1189 56.6796 15.0359 56.968C14.953 57.2564 14.8779 57.5251 14.8147 57.7739C14.7515 58.0228 14.6962 58.2599 14.6488 58.485C14.6014 58.7102 14.5619 58.9315 14.5263 59.1488C14.1826 59.0974 13.8982 58.8841 13.6651 58.5048C13.7046 58.3468 13.7559 58.173 13.8152 57.9873C13.8745 57.8016 13.9416 57.5883 14.0246 57.3512C14.1036 57.1142 14.1984 56.8416 14.3051 56.5413C14.4118 56.2411 14.5342 55.8974 14.6725 55.5102C14.7238 55.368 14.7792 55.2179 14.8345 55.0599C14.8898 54.9018 14.9451 54.7478 15.0004 54.5937C15.0557 54.4396 15.1031 54.2934 15.1466 54.1473C15.19 54.005 15.2256 53.8747 15.2572 53.7562C15.0439 53.7799 14.8384 53.8036 14.6448 53.8233C14.4513 53.8431 14.2814 53.851 14.1352 53.851L14.1273 53.8431Z" fill="#CAA593"/>
<path d="M20.1204 58.0505C20.1204 57.8332 20.1559 57.5567 20.2271 57.2169C20.2982 56.8772 20.393 56.5177 20.5115 56.1305C20.1718 56.1582 19.8359 56.1937 19.4922 56.2372C19.1525 56.2806 18.8562 56.3004 18.6034 56.3004C18.3742 56.8377 18.1885 57.3355 18.0542 57.7898C17.9199 58.2441 17.8132 58.6866 17.7342 59.1172C17.5406 59.0698 17.3787 58.9908 17.2522 58.8762C17.1258 58.7616 17.0073 58.6155 16.9006 58.4416C16.9401 58.3587 16.9875 58.2559 17.0429 58.1256C17.0982 57.9992 17.1614 57.8411 17.2364 57.6594C17.3115 57.4777 17.3945 57.2643 17.4893 57.0234C17.5841 56.7784 17.6947 56.4979 17.8172 56.174C17.6473 56.1029 17.5367 56.0041 17.4774 55.8737C17.5011 55.854 17.5604 55.8303 17.6513 55.8066C17.7421 55.7829 17.8527 55.7592 17.9871 55.7354L18.0858 55.4905C18.1925 55.214 18.2834 54.9809 18.3505 54.7913C18.4177 54.6016 18.4769 54.4159 18.5283 54.2342C18.5797 54.0525 18.6231 53.851 18.6666 53.6298C18.71 53.4085 18.7614 53.132 18.8246 52.7922C19.0379 52.8317 19.2355 52.9266 19.4132 53.0767C19.591 53.2268 19.7411 53.4046 19.8715 53.614C19.8241 53.6772 19.7688 53.768 19.7016 53.8905C19.6345 54.013 19.5634 54.1591 19.4843 54.333C19.4053 54.5068 19.3184 54.6964 19.2276 54.9098C19.1367 55.1231 19.034 55.3483 18.9273 55.5814C19.2434 55.5379 19.5673 55.4984 19.8913 55.4589C20.2152 55.4194 20.5036 55.3996 20.7564 55.3996C20.8473 55.131 20.9461 54.8703 21.0448 54.6174C21.1436 54.3646 21.2424 54.1315 21.3411 53.9182C21.4399 53.7088 21.5308 53.5231 21.6216 53.3611C21.7125 53.2031 21.7915 53.0846 21.8626 53.0056C21.914 53.0095 21.9811 53.0293 22.0641 53.0648C22.1471 53.0964 22.234 53.1399 22.3209 53.1833C22.4078 53.2308 22.4868 53.2782 22.5579 53.3335C22.629 53.3888 22.6764 53.4362 22.7041 53.4836C22.6132 53.5705 22.5184 53.6811 22.4276 53.8233C22.3367 53.9616 22.2458 54.1196 22.155 54.3014C22.0641 54.4791 21.9772 54.6767 21.8903 54.8861C21.8034 55.0954 21.7204 55.3127 21.6453 55.5379C21.7481 55.6288 21.7994 55.7473 21.7994 55.8856C21.7994 55.9843 21.7797 56.0713 21.7362 56.1542C21.6888 56.1424 21.6453 56.1345 21.5979 56.1345C21.5505 56.1345 21.5031 56.1345 21.4518 56.1266C21.3648 56.4031 21.2858 56.6757 21.2147 56.9483C21.1436 57.2169 21.0843 57.4777 21.033 57.7226C20.9856 57.9676 20.9461 58.1927 20.9184 58.3982C20.8908 58.6036 20.875 58.7735 20.875 58.9117C20.875 58.9631 20.875 59.0026 20.875 59.0342C20.875 59.0658 20.8829 59.0895 20.8868 59.1093C20.7722 59.1093 20.6932 59.0935 20.6419 59.0579C20.5905 59.0263 20.551 58.9868 20.5273 58.9513C20.4997 58.9118 20.4799 58.8722 20.4601 58.8367C20.4404 58.8011 20.4048 58.7695 20.3614 58.7498C20.3258 58.734 20.2942 58.6984 20.2626 58.6431C20.231 58.5878 20.2073 58.5206 20.1876 58.4495C20.1678 58.3784 20.152 58.3073 20.1401 58.2322C20.1283 58.1611 20.1243 58.1019 20.1243 58.0545L20.1204 58.0505Z" fill="#CAA593"/>
<path d="M25.4816 55.2258C25.6515 55.2258 25.7818 55.2732 25.8767 55.3641C25.9715 55.455 26.0189 55.5853 26.0189 55.7473C26.0189 55.7868 26.0189 55.8303 26.007 55.8737C25.9991 55.9172 25.9912 55.9527 25.9794 55.9843C25.9122 55.9725 25.8371 55.9646 25.7581 55.9567C25.6752 55.9488 25.5804 55.9448 25.4658 55.9448C25.2446 55.9448 25.0233 55.9646 24.7981 56.0041C24.5729 56.0436 24.3596 56.0752 24.1542 56.0989C24.0357 56.3715 23.929 56.6322 23.8302 56.889C23.7315 57.1419 23.6485 57.375 23.5813 57.5843C23.5142 57.7937 23.4589 57.9755 23.4194 58.1295C23.3799 58.2836 23.3601 58.3982 23.3522 58.4772C23.767 58.3824 24.1858 58.3034 24.6085 58.2362C25.0312 58.169 25.4737 58.1374 25.9399 58.1374C25.9952 58.2204 26.0426 58.3152 26.0821 58.414C26.1216 58.5127 26.1413 58.6194 26.1413 58.734V58.8327C26.1413 58.8683 26.1374 58.9038 26.1255 58.9355H24.569C24.4189 58.9355 24.2648 58.9434 24.1107 58.9592C23.9566 58.975 23.7947 58.9987 23.6248 59.0263C23.4549 59.054 23.2613 59.0856 23.0441 59.1251C22.807 59.0342 22.5818 58.809 22.3606 58.4495C22.4475 58.2638 22.57 57.9834 22.7241 57.608C22.8781 57.2327 23.0796 56.7271 23.3206 56.095C23.0915 56.0238 22.9374 55.8935 22.8663 55.7117C22.89 55.688 22.965 55.6525 23.0875 55.6169C23.21 55.5774 23.3601 55.5379 23.5418 55.4984C23.6169 55.2969 23.6841 55.1231 23.7394 54.9769C23.7947 54.8268 23.8421 54.6885 23.8816 54.5582C23.9211 54.4278 23.9606 54.3014 23.9922 54.175C24.0238 54.0485 24.0594 53.9142 24.087 53.7641C23.9092 53.7641 23.767 53.7206 23.6643 53.6298C23.5616 53.5389 23.5102 53.4204 23.5102 53.2742C23.5102 53.2308 23.5181 53.1833 23.53 53.1241C23.5418 53.0648 23.5576 53.0174 23.5734 52.974C23.6762 52.9819 23.7749 52.9858 23.8697 52.9858H25.1497C25.4302 52.9858 25.687 52.974 25.9162 52.9463C26.1453 52.9187 26.3389 52.895 26.5048 52.8712C26.6707 52.8475 26.7932 52.8357 26.8801 52.8357C26.9986 52.8357 27.1013 52.8989 27.1962 53.0214C27.291 53.1438 27.3581 53.3177 27.4055 53.5429C27.2475 53.5231 27.1171 53.5112 27.0184 53.5112H26.7537C26.4732 53.5112 26.2164 53.527 25.9833 53.5547C25.7502 53.5824 25.525 53.61 25.3117 53.6416C25.2801 53.689 25.2446 53.7483 25.209 53.8194C25.1695 53.8905 25.1221 53.9893 25.0589 54.1196C24.9957 54.2461 24.9206 54.408 24.8337 54.6016C24.7468 54.7952 24.6362 55.0362 24.5058 55.3285C24.6994 55.2969 24.885 55.2732 25.0549 55.2574C25.2248 55.2416 25.371 55.2298 25.4895 55.2298L25.4816 55.2258Z" fill="#CAA593"/>
<path d="M32.2094 54.2658C32.2094 54.5107 32.1541 54.7438 32.0435 54.9611C31.9328 55.1784 31.7788 55.372 31.5852 55.5458C31.3916 55.7196 31.1625 55.8618 30.9017 55.9804C30.641 56.0989 30.3565 56.1779 30.0484 56.2174C30.1235 56.4465 30.2183 56.6836 30.3289 56.9285C30.4395 57.1735 30.558 57.4065 30.6844 57.6317C30.8109 57.8569 30.9452 58.0663 31.0835 58.2559C31.2217 58.4456 31.3561 58.6036 31.4904 58.726C31.4667 58.7774 31.4272 58.8288 31.3798 58.8801C31.3323 58.9315 31.2731 58.9789 31.2099 59.0223C31.1467 59.0658 31.0795 59.1014 31.0123 59.129C30.9452 59.1567 30.878 59.1725 30.8148 59.1725C30.7002 59.1725 30.5936 59.1172 30.4909 59.0105C30.3882 58.9038 30.2854 58.734 30.1788 58.5009C30.0721 58.2678 29.9654 57.9675 29.8469 57.5962C29.7323 57.2248 29.6059 56.7784 29.4677 56.2569H29.2978C29.2425 56.2569 29.199 56.253 29.1674 56.2411C29.1319 56.2214 29.0923 56.1858 29.0528 56.1344C28.9146 56.4307 28.7921 56.7112 28.6854 56.972C28.5788 57.2327 28.4839 57.4856 28.397 57.7305C28.3141 57.9754 28.239 58.2085 28.1758 58.4377C28.1126 58.6668 28.0573 58.8959 28.0099 59.133C27.836 59.0935 27.6859 59.0184 27.5556 58.9117C27.4291 58.8051 27.3067 58.6549 27.196 58.4574C27.2158 58.41 27.2395 58.3665 27.2632 58.3231C27.2869 58.2796 27.3146 58.2164 27.3501 58.1374C27.3857 58.0584 27.4291 57.9557 27.4844 57.8332C27.5398 57.7107 27.6109 57.5448 27.6978 57.3394C27.7886 57.1339 27.8953 56.8851 28.0217 56.5848C28.1481 56.2846 28.2983 55.9251 28.48 55.5023C28.563 55.3127 28.6341 55.1468 28.6894 55.0046C28.7486 54.8623 28.8 54.7241 28.8474 54.5937C28.8948 54.4633 28.9343 54.333 28.9738 54.2026C29.0133 54.0722 29.0528 53.9221 29.0923 53.7522C28.8553 53.8352 28.638 53.926 28.4365 54.0248C28.2351 54.1236 28.0652 54.2302 27.9348 54.3448C27.8874 54.3132 27.84 54.2697 27.7926 54.2065C27.7452 54.1433 27.6978 54.0762 27.6583 54.0051C27.6188 53.9339 27.5832 53.8549 27.5516 53.7799C27.52 53.7048 27.5042 53.6337 27.4963 53.5744C27.6504 53.4717 27.84 53.3769 28.0612 53.29C28.2825 53.2031 28.5195 53.128 28.7723 53.0648C29.0252 53.0016 29.278 52.9502 29.5427 52.9147C29.8035 52.8791 30.0484 52.8594 30.2736 52.8594C30.8899 52.8594 31.364 52.9858 31.7037 53.2386C32.0435 53.4915 32.2094 53.8391 32.2094 54.2776V54.2658ZM30.3368 53.6218C30.3012 53.6692 30.2459 53.7601 30.1669 53.8984C30.0879 54.0367 30.001 54.2026 29.9022 54.3922C29.8035 54.5858 29.6968 54.7912 29.5862 55.0164C29.4756 55.2416 29.3689 55.4628 29.2662 55.6841C29.6494 55.6841 30.0049 55.6485 30.3249 55.5774C30.6489 55.5063 30.9254 55.4036 31.1625 55.2732C31.3995 55.1428 31.5812 54.9888 31.7116 54.811C31.842 54.6332 31.9091 54.4396 31.9091 54.2223C31.9091 53.9655 31.8183 53.772 31.6326 53.6337C31.4469 53.4954 31.1625 53.4283 30.7793 53.4283C30.6923 53.4283 30.6054 53.4283 30.5185 53.4401C30.4316 53.448 30.3407 53.4559 30.242 53.4678L30.3328 53.6139L30.3368 53.6218Z" fill="#CAA593"/>
<path d="M77.5232 59.0815C77.2782 59.0104 77.1084 58.9393 77.0136 58.8682C76.9187 58.7971 76.8713 58.7062 76.8713 58.5996C76.8713 58.5166 76.895 58.402 76.9385 58.2519C76.9859 58.1018 77.0531 57.928 77.14 57.7265C77.2308 57.525 77.3375 57.2998 77.4639 57.0549C77.5904 56.8099 77.7326 56.5452 77.8906 56.2608H77.2743C77.3059 56.1818 77.3928 56.1186 77.535 56.0593C77.6773 56.004 77.8669 55.9526 78.1039 55.9131C78.3054 55.5773 78.5188 55.2613 78.7439 54.9571C78.9691 54.6529 79.2022 54.3764 79.4313 54.1196C79.6605 53.8667 79.8936 53.6415 80.1227 53.448C80.3518 53.2544 80.5731 53.1043 80.7825 52.9897C80.7864 52.9541 80.7904 52.9225 80.7943 52.8988C80.7943 52.8712 80.7943 52.8554 80.7943 52.8435C80.8654 52.8435 80.9602 52.8633 81.0827 52.8988C81.2012 52.9344 81.3197 52.9778 81.4343 53.0292C81.5489 53.0805 81.6516 53.1319 81.7425 53.1872C81.8333 53.2425 81.8807 53.286 81.8926 53.3215C81.7227 53.6178 81.5568 54.0642 81.3948 54.6529C81.2328 55.2455 81.0946 55.9526 80.9879 56.7783C80.9642 56.9838 80.9405 57.2169 80.9207 57.4776C80.901 57.7383 80.8931 58.0307 80.8931 58.3546V58.7023C80.8931 58.8208 80.897 58.9433 80.9089 59.0697C80.897 59.0736 80.8891 59.0776 80.8773 59.0776H80.8141C80.7429 59.0776 80.66 59.0657 80.5652 59.042C80.4704 59.0183 80.3795 58.9907 80.2886 58.9591C80.1978 58.9275 80.1227 58.888 80.0595 58.8485C79.9963 58.809 79.9568 58.7734 79.941 58.7418C79.937 58.6746 79.9331 58.6114 79.9331 58.5482V58.3467C79.9331 58.0346 79.9449 57.7146 79.9686 57.3946C79.9923 57.0746 80.0318 56.7388 80.0871 56.3951C80.016 56.3398 79.9212 56.3122 79.8027 56.3122H78.4516C78.3291 56.5413 78.2145 56.7665 78.1039 56.9917C77.9973 57.2168 77.9064 57.442 77.8274 57.6712C77.7405 57.9122 77.6694 58.1571 77.618 58.3981C77.5627 58.6391 77.5311 58.8682 77.5153 59.0815H77.5232ZM80.4901 54.4672C80.5099 54.3961 80.5336 54.2973 80.5612 54.1709C80.5889 54.0445 80.6165 53.9141 80.6402 53.7719C80.5138 53.8193 80.3716 53.9023 80.2136 54.0247C80.0555 54.1472 79.8975 54.3013 79.7316 54.483C79.5657 54.6647 79.3958 54.8702 79.2259 55.0993C79.056 55.3285 78.8901 55.5694 78.7321 55.8262C79.1627 55.7828 79.6526 55.7591 80.1978 55.7591C80.2373 55.5418 80.2847 55.3284 80.3321 55.1151C80.3795 54.9018 80.4348 54.6845 80.4901 54.4633V54.4672Z" fill="#CAA593"/>
<path d="M82.2718 58.0583C82.2718 57.8726 82.3034 57.6356 82.3587 57.3393C82.4179 57.043 82.493 56.7269 82.5878 56.3872C82.6826 56.0474 82.7893 55.6958 82.9157 55.3403C83.0421 54.9847 83.1646 54.6489 83.291 54.3368C83.4175 54.0247 83.5439 53.7521 83.6663 53.5151C83.7888 53.278 83.8994 53.1121 83.9982 53.0094C84.0495 53.0134 84.1167 53.0331 84.1997 53.0687C84.2826 53.1003 84.3696 53.1437 84.4565 53.1872C84.5434 53.2346 84.6224 53.282 84.6935 53.3373C84.7646 53.3926 84.812 53.44 84.8318 53.4874C84.6816 53.6217 84.5355 53.8193 84.3893 54.0919C84.2431 54.3605 84.1009 54.6647 83.9666 55.0084C83.8323 55.3521 83.7019 55.7156 83.5873 56.0948C83.4728 56.4741 83.3661 56.8455 83.2792 57.205C83.1923 57.5645 83.1251 57.8963 83.0737 58.2045C83.0224 58.5126 83.0026 58.7615 83.0026 58.9472C83.0026 59.0341 83.0105 59.0894 83.0263 59.1092C82.9118 59.1092 82.8328 59.0934 82.7814 59.0578C82.73 59.0262 82.6905 58.9867 82.6629 58.9511C82.6352 58.9116 82.6076 58.8721 82.5878 58.8366C82.5641 58.7971 82.5286 58.7694 82.4851 58.7497C82.4495 58.7339 82.4179 58.6983 82.3942 58.643C82.3666 58.5877 82.3468 58.5245 82.3271 58.4534C82.3073 58.3823 82.2955 58.3151 82.2836 58.24C82.2718 58.165 82.2678 58.1097 82.2678 58.0623L82.2718 58.0583Z" fill="#CAA593"/>
<path d="M89.6833 54.2657C89.6833 54.5106 89.628 54.7437 89.5173 54.961C89.4067 55.1783 89.2526 55.3719 89.0591 55.5457C88.8655 55.7195 88.6363 55.8617 88.3756 55.9802C88.1149 56.0988 87.8304 56.1778 87.5223 56.2173C87.5973 56.4464 87.6921 56.6835 87.8028 56.9284C87.9134 57.1733 88.0319 57.4064 88.1583 57.6316C88.2847 57.8568 88.4191 58.0662 88.5573 58.2558C88.6956 58.4454 88.8299 58.6035 88.9642 58.7259C88.9405 58.7773 88.901 58.8286 88.8536 58.88C88.8062 58.9314 88.747 58.9788 88.6838 59.0222C88.6205 59.0657 88.5534 59.1012 88.4862 59.1289C88.4191 59.1565 88.3519 59.1723 88.2887 59.1723C88.1741 59.1723 88.0675 59.117 87.9647 59.0104C87.862 58.9037 87.7593 58.7338 87.6526 58.5007C87.546 58.2677 87.4393 57.9674 87.3208 57.596C87.2062 57.2247 87.0798 56.7783 86.9415 56.2568H86.7717C86.7163 56.2568 86.6729 56.2528 86.6413 56.241C86.6057 56.2212 86.5662 56.1857 86.5267 56.1343C86.3884 56.4306 86.266 56.7111 86.1593 56.9719C86.0526 57.2326 85.9578 57.4854 85.8709 57.7304C85.7879 57.9753 85.7129 58.2084 85.6497 58.4375C85.5865 58.6667 85.5312 58.8958 85.4837 59.1328C85.3099 59.0933 85.1598 59.0183 85.0294 58.9116C84.903 58.8049 84.7805 58.6548 84.6699 58.4573C84.6897 58.4099 84.7134 58.3664 84.7371 58.323C84.7608 58.2795 84.7884 58.2163 84.824 58.1373C84.8596 58.0583 84.903 57.9556 84.9583 57.8331C85.0136 57.7106 85.0847 57.5447 85.1716 57.3393C85.2625 57.1338 85.3692 56.8849 85.4956 56.5847C85.622 56.2844 85.7721 55.9249 85.9539 55.5022C86.0368 55.3126 86.1079 55.1467 86.1633 55.0044C86.2225 54.8622 86.2739 54.7239 86.3213 54.5936C86.3687 54.4632 86.4082 54.3328 86.4477 54.2025C86.4872 54.0721 86.5267 53.922 86.5662 53.7521C86.3292 53.8351 86.1119 53.9259 85.9104 54.0247C85.7089 54.1235 85.5391 54.2301 85.4087 54.3447C85.3613 54.3131 85.3139 54.2696 85.2665 54.2064C85.2191 54.1432 85.1717 54.076 85.1321 54.0049C85.0926 53.9338 85.0571 53.8548 85.0255 53.7797C84.9939 53.7047 84.9781 53.6336 84.9702 53.5743C85.1242 53.4716 85.3139 53.3768 85.5351 53.2899C85.7563 53.203 85.9934 53.1279 86.2462 53.0647C86.4991 53.0015 86.7519 52.9501 87.0166 52.9146C87.2773 52.879 87.5223 52.8593 87.7475 52.8593C88.3638 52.8593 88.8378 52.9857 89.1776 53.2385C89.5173 53.4913 89.6833 53.839 89.6833 54.2775V54.2657ZM87.8107 53.6217C87.7751 53.6691 87.7198 53.76 87.6408 53.8983C87.5618 54.0365 87.4749 54.2025 87.3761 54.3921C87.2773 54.5857 87.1707 54.7911 87.06 55.0163C86.9494 55.2415 86.8428 55.4627 86.74 55.6839C87.1233 55.6839 87.4788 55.6484 87.7988 55.5773C88.1228 55.5062 88.3993 55.4035 88.6363 55.2731C88.8734 55.1427 89.0551 54.9886 89.1855 54.8109C89.3159 54.6331 89.383 54.4395 89.383 54.2222C89.383 53.9654 89.2921 53.7718 89.1065 53.6336C88.9208 53.4953 88.6363 53.4281 88.2531 53.4281C88.1662 53.4281 88.0793 53.4281 87.9924 53.44C87.9055 53.4479 87.8146 53.4558 87.7158 53.4676L87.8067 53.6138L87.8107 53.6217Z" fill="#CAA593"/>
<path d="M148.46 55.2971C148.626 55.2971 148.753 55.3445 148.848 55.4354C148.942 55.5263 148.99 55.6566 148.99 55.8186C148.99 55.8581 148.99 55.9016 148.982 55.945C148.978 55.9885 148.966 56.024 148.95 56.0557C148.883 56.0438 148.808 56.0359 148.729 56.028C148.646 56.0201 148.551 56.0161 148.437 56.0161C148.208 56.0161 147.975 56.0359 147.745 56.0794C147.516 56.1189 147.295 56.1544 147.086 56.1781C146.856 56.7194 146.667 57.229 146.517 57.707C146.367 58.185 146.252 58.6552 146.169 59.1213C145.995 59.0818 145.841 59.0068 145.707 58.9001C145.573 58.7934 145.446 58.6433 145.332 58.4458C145.367 58.3628 145.411 58.2641 145.462 58.1495C145.513 58.0349 145.573 57.8887 145.648 57.711C145.723 57.5332 145.806 57.3198 145.904 57.067C146.003 56.8142 146.122 56.51 146.26 56.1584C146.047 56.0873 145.904 55.9608 145.837 55.7831C145.861 55.7594 145.936 55.7277 146.051 55.6961C146.169 55.6645 146.311 55.625 146.481 55.5855C146.556 55.384 146.623 55.2063 146.679 55.0522C146.734 54.8981 146.785 54.748 146.833 54.6058C146.88 54.4636 146.92 54.3253 146.959 54.191C146.999 54.0566 147.03 53.9105 147.062 53.7564H147.022C146.829 53.7564 146.671 53.709 146.548 53.6181C146.426 53.5273 146.367 53.4048 146.367 53.2547C146.367 53.2152 146.375 53.1638 146.386 53.1085C146.398 53.0532 146.414 53.0018 146.438 52.9623C146.536 52.9702 146.631 52.9742 146.726 52.9742H148.006C148.287 52.9742 148.543 52.9623 148.769 52.9386C148.998 52.9149 149.191 52.8912 149.357 52.8714C149.519 52.8517 149.646 52.8398 149.733 52.8398C149.851 52.8398 149.954 52.9031 150.049 53.0255C150.143 53.148 150.211 53.3218 150.262 53.547C150.096 53.5272 149.966 53.5154 149.867 53.5154H149.602C149.341 53.5154 149.1 53.5273 148.883 53.551C148.666 53.5747 148.46 53.6023 148.263 53.63C148.231 53.6774 148.196 53.7327 148.16 53.8077C148.121 53.8789 148.073 53.9816 148.01 54.108C147.947 54.2384 147.872 54.4082 147.777 54.6176C147.682 54.827 147.564 55.0917 147.421 55.4117C147.623 55.3801 147.813 55.3564 147.994 55.3327C148.176 55.3129 148.33 55.3011 148.453 55.3011L148.46 55.2971Z" fill="#CAA593"/>
<path d="M149.705 58.0584C149.705 57.8727 149.736 57.6357 149.792 57.3394C149.851 57.0431 149.926 56.7271 150.021 56.3873C150.116 56.0476 150.222 55.6959 150.349 55.3404C150.475 54.9848 150.598 54.649 150.724 54.3369C150.851 54.0248 150.977 53.7522 151.099 53.5152C151.222 53.2782 151.333 53.1122 151.431 53.0095C151.483 53.0135 151.55 53.0332 151.633 53.0688C151.716 53.1004 151.803 53.1438 151.89 53.1873C151.976 53.2347 152.056 53.2821 152.127 53.3374C152.198 53.3927 152.245 53.4401 152.265 53.4875C152.115 53.6219 151.969 53.8194 151.822 54.092C151.676 54.3606 151.534 54.6648 151.4 55.0085C151.265 55.3522 151.135 55.7157 151.02 56.095C150.906 56.4742 150.799 56.8456 150.712 57.2051C150.625 57.5646 150.558 57.8964 150.507 58.2046C150.456 58.5127 150.436 58.7616 150.436 58.9473C150.436 59.0342 150.444 59.0895 150.459 59.1093C150.345 59.1093 150.266 59.0935 150.215 59.0579C150.163 59.0263 150.124 58.9868 150.096 58.9513C150.068 58.9118 150.041 58.8722 150.021 58.8367C149.997 58.7972 149.962 58.7695 149.918 58.7498C149.883 58.734 149.851 58.6984 149.827 58.6431C149.8 58.5878 149.78 58.5246 149.76 58.4535C149.74 58.3824 149.729 58.3152 149.717 58.2401C149.705 58.1651 149.701 58.1098 149.701 58.0624L149.705 58.0584Z" fill="#CAA593"/>
<path d="M157.116 54.2658C157.116 54.5107 157.061 54.7438 156.95 54.9611C156.84 55.1784 156.686 55.372 156.492 55.5458C156.299 55.7196 156.069 55.8618 155.809 55.9804C155.548 56.0989 155.264 56.1779 154.955 56.2174C155.03 56.4465 155.125 56.6836 155.236 56.9285C155.346 57.1735 155.465 57.4065 155.591 57.6317C155.718 57.8569 155.852 58.0663 155.99 58.2559C156.129 58.4456 156.263 58.6036 156.397 58.726C156.374 58.7774 156.334 58.8288 156.287 58.8801C156.239 58.9315 156.18 58.9789 156.117 59.0223C156.054 59.0658 155.986 59.1014 155.919 59.129C155.852 59.1567 155.785 59.1725 155.722 59.1725C155.607 59.1725 155.501 59.1172 155.398 59.0105C155.295 58.9038 155.192 58.734 155.086 58.5009C154.979 58.2678 154.872 57.9675 154.754 57.5962C154.639 57.2248 154.513 56.7784 154.375 56.2569H154.205C154.149 56.2569 154.106 56.253 154.074 56.2411C154.039 56.2214 153.999 56.1858 153.96 56.1344C153.822 56.4307 153.699 56.7112 153.592 56.972C153.486 57.2327 153.391 57.4856 153.304 57.7305C153.221 57.9754 153.146 58.2085 153.083 58.4377C153.02 58.6668 152.964 58.8959 152.917 59.133C152.743 59.0935 152.593 59.0184 152.463 58.9117C152.336 58.8051 152.214 58.6549 152.103 58.4574C152.123 58.41 152.146 58.3665 152.17 58.3231C152.194 58.2796 152.222 58.2164 152.257 58.1374C152.293 58.0584 152.336 57.9557 152.391 57.8332C152.447 57.7107 152.518 57.5448 152.605 57.3394C152.696 57.1339 152.802 56.8851 152.929 56.5848C153.055 56.2846 153.205 55.9251 153.387 55.5023C153.47 55.3127 153.541 55.1468 153.596 55.0046C153.656 54.8623 153.707 54.7241 153.754 54.5937C153.802 54.4633 153.841 54.333 153.881 54.2026C153.92 54.0722 153.96 53.9221 153.999 53.7522C153.762 53.8352 153.545 53.926 153.344 54.0248C153.142 54.1236 152.972 54.2302 152.842 54.3448C152.794 54.3132 152.747 54.2697 152.7 54.2065C152.652 54.1433 152.605 54.0762 152.565 54.0051C152.526 53.9339 152.49 53.8549 152.459 53.7799C152.427 53.7048 152.411 53.6337 152.403 53.5744C152.557 53.4717 152.747 53.3769 152.968 53.29C153.189 53.2031 153.426 53.128 153.679 53.0648C153.932 53.0016 154.185 52.9502 154.45 52.9147C154.71 52.8791 154.955 52.8594 155.181 52.8594C155.797 52.8594 156.271 52.9858 156.611 53.2386C156.95 53.4915 157.116 53.8391 157.116 54.2776V54.2658ZM155.244 53.6218C155.208 53.6692 155.153 53.7601 155.074 53.8984C154.995 54.0367 154.908 54.2026 154.809 54.3922C154.71 54.5858 154.604 54.7912 154.493 55.0164C154.383 55.2416 154.276 55.4628 154.173 55.6841C154.556 55.6841 154.912 55.6485 155.232 55.5774C155.556 55.5063 155.832 55.4036 156.069 55.2732C156.306 55.1428 156.488 54.9888 156.619 54.811C156.749 54.6332 156.816 54.4396 156.816 54.2223C156.816 53.9655 156.725 53.772 156.54 53.6337C156.354 53.4954 156.069 53.4283 155.686 53.4283C155.599 53.4283 155.512 53.4283 155.426 53.4401C155.339 53.448 155.248 53.4559 155.149 53.4678L155.24 53.6139L155.244 53.6218Z" fill="#CAA593"/>
<path d="M160.312 55.2258C160.482 55.2258 160.613 55.2732 160.707 55.3641C160.802 55.455 160.85 55.5853 160.85 55.7473C160.85 55.7868 160.85 55.8303 160.838 55.8737C160.83 55.9172 160.822 55.9527 160.81 55.9843C160.743 55.9725 160.668 55.9646 160.589 55.9567C160.506 55.9488 160.411 55.9448 160.297 55.9448C160.075 55.9448 159.854 55.9646 159.629 56.0041C159.404 56.0436 159.19 56.0752 158.985 56.0989C158.866 56.3715 158.76 56.6322 158.661 56.889C158.562 57.1419 158.479 57.375 158.412 57.5843C158.345 57.7937 158.29 57.9755 158.25 58.1295C158.211 58.2836 158.191 58.3982 158.183 58.4772C158.598 58.3824 159.017 58.3034 159.439 58.2362C159.862 58.169 160.304 58.1374 160.771 58.1374C160.826 58.2204 160.873 58.3152 160.913 58.414C160.952 58.5127 160.972 58.6194 160.972 58.734V58.8327C160.972 58.8683 160.968 58.9038 160.956 58.9355H159.4C159.25 58.9355 159.096 58.9434 158.942 58.9592C158.787 58.975 158.625 58.9987 158.456 59.0263C158.286 59.054 158.092 59.0856 157.875 59.1251C157.638 59.0342 157.413 58.809 157.191 58.4495C157.278 58.2638 157.401 57.9834 157.555 57.608C157.709 57.2327 157.91 56.7271 158.151 56.095C157.922 56.0238 157.768 55.8935 157.697 55.7117C157.721 55.688 157.796 55.6525 157.918 55.6169C158.041 55.5774 158.191 55.5379 158.373 55.4984C158.448 55.2969 158.515 55.1231 158.57 54.9769C158.625 54.8268 158.673 54.6885 158.712 54.5582C158.752 54.4278 158.791 54.3014 158.823 54.175C158.855 54.0485 158.89 53.9142 158.918 53.7641C158.74 53.7641 158.598 53.7206 158.495 53.6298C158.392 53.5389 158.341 53.4204 158.341 53.2742C158.341 53.2308 158.349 53.1833 158.361 53.1241C158.373 53.0648 158.388 53.0174 158.404 52.974C158.507 52.9819 158.606 52.9858 158.701 52.9858H159.981C160.261 52.9858 160.518 52.974 160.747 52.9463C160.976 52.9187 161.17 52.895 161.336 52.8712C161.502 52.8475 161.624 52.8357 161.711 52.8357C161.829 52.8357 161.932 52.8989 162.027 53.0214C162.122 53.1438 162.189 53.3177 162.236 53.5429C162.078 53.5231 161.948 53.5112 161.849 53.5112H161.584C161.304 53.5112 161.047 53.527 160.814 53.5547C160.581 53.5824 160.356 53.61 160.143 53.6416C160.111 53.689 160.075 53.7483 160.04 53.8194C160 53.8905 159.953 53.9893 159.89 54.1196C159.826 54.2461 159.751 54.408 159.664 54.6016C159.578 54.7952 159.467 55.0362 159.337 55.3285C159.53 55.2969 159.716 55.2732 159.886 55.2574C160.056 55.2416 160.202 55.2298 160.32 55.2298L160.312 55.2258Z" fill="#CAA593"/>
<path d="M209.367 55.2259C209.537 55.2259 209.668 55.2733 209.762 55.3642C209.857 55.4551 209.905 55.5854 209.905 55.7474C209.905 55.7869 209.905 55.8304 209.893 55.8738C209.885 55.9173 209.877 55.9529 209.865 55.9845C209.798 55.9726 209.723 55.9647 209.644 55.9568C209.561 55.9489 209.466 55.945 209.352 55.945C209.13 55.945 208.909 55.9647 208.684 56.0042C208.459 56.0437 208.245 56.0753 208.04 56.099C207.921 56.3716 207.815 56.6324 207.716 56.8892C207.617 57.142 207.534 57.3751 207.467 57.5845C207.4 57.7938 207.345 57.9756 207.305 58.1296C207.266 58.2837 207.246 58.3983 207.238 58.4773C207.653 58.3825 208.072 58.3035 208.494 58.2363C208.917 58.1692 209.359 58.1376 209.826 58.1376C209.881 58.2205 209.928 58.3153 209.968 58.4141C210.007 58.5129 210.027 58.6195 210.027 58.7341V58.8329C210.027 58.8684 210.023 58.904 210.011 58.9356H208.455C208.305 58.9356 208.151 58.9435 207.996 58.9593C207.842 58.9751 207.68 58.9988 207.511 59.0264C207.341 59.0541 207.147 59.0857 206.93 59.1252C206.693 59.0343 206.468 58.8092 206.246 58.4496C206.333 58.264 206.456 57.9835 206.61 57.6082C206.764 57.2329 206.965 56.7272 207.206 56.0951C206.977 56.024 206.823 55.8936 206.752 55.7119C206.776 55.6882 206.851 55.6526 206.973 55.6171C207.096 55.5775 207.246 55.538 207.428 55.4985C207.503 55.297 207.57 55.1232 207.625 54.9771C207.68 54.8269 207.728 54.6887 207.767 54.5583C207.807 54.4279 207.846 54.3015 207.878 54.1751C207.91 54.0487 207.945 53.9143 207.973 53.7642C207.795 53.7642 207.653 53.7208 207.55 53.6299C207.447 53.539 207.396 53.4205 207.396 53.2743C207.396 53.2309 207.404 53.1835 207.416 53.1242C207.428 53.0649 207.443 53.0175 207.459 52.9741C207.562 52.982 207.661 52.9859 207.755 52.9859H209.035C209.316 52.9859 209.573 52.9741 209.802 52.9464C210.031 52.9188 210.225 52.8951 210.391 52.8714C210.556 52.8477 210.679 52.8358 210.766 52.8358C210.884 52.8358 210.987 52.899 211.082 53.0215C211.177 53.144 211.244 53.3178 211.291 53.543C211.133 53.5232 211.003 53.5114 210.904 53.5114H210.639C210.359 53.5114 210.102 53.5272 209.869 53.5548C209.636 53.5825 209.411 53.6101 209.197 53.6417C209.166 53.6891 209.13 53.7484 209.095 53.8195C209.055 53.8906 209.008 53.9894 208.945 54.1198C208.881 54.2462 208.806 54.4082 208.719 54.6017C208.633 54.7953 208.522 55.0363 208.392 55.3287C208.585 55.2971 208.771 55.2733 208.941 55.2575C209.111 55.2417 209.257 55.2299 209.375 55.2299L209.367 55.2259Z" fill="#CAA593"/>
<path d="M211.216 59.0817C210.971 59.0106 210.801 58.9394 210.707 58.8683C210.612 58.7972 210.564 58.7064 210.564 58.5997C210.564 58.5167 210.588 58.4022 210.632 58.252C210.679 58.1019 210.746 57.9281 210.833 57.7266C210.924 57.5251 211.031 57.2999 211.157 57.055C211.283 56.8101 211.426 56.5454 211.584 56.2609H210.967C210.999 56.1819 211.086 56.1187 211.228 56.0594C211.37 56.0041 211.56 55.9528 211.797 55.9133C211.999 55.5775 212.212 55.2614 212.437 54.9572C212.662 54.653 212.895 54.3765 213.124 54.1197C213.354 53.8668 213.587 53.6417 213.816 53.4481C214.045 53.2545 214.266 53.1044 214.476 52.9898C214.48 52.9542 214.483 52.9226 214.487 52.8989C214.487 52.8713 214.487 52.8555 214.487 52.8436C214.559 52.8436 214.653 52.8634 214.776 52.8989C214.894 52.9345 215.013 52.9779 215.127 53.0293C215.242 53.0807 215.345 53.132 215.436 53.1873C215.526 53.2426 215.574 53.2861 215.586 53.3217C215.416 53.618 215.25 54.0644 215.088 54.653C214.926 55.2456 214.788 55.9528 214.681 56.7785C214.657 56.9839 214.634 57.217 214.614 57.4777C214.594 57.7385 214.586 58.0308 214.586 58.3548V58.7024C214.586 58.8209 214.59 58.9434 214.602 59.0698C214.59 59.0738 214.582 59.0777 214.57 59.0777H214.507C214.436 59.0777 214.353 59.0659 214.258 59.0422C214.163 59.0185 214.073 58.9908 213.982 58.9592C213.891 58.9276 213.816 58.8881 213.753 58.8486C213.689 58.8091 213.65 58.7735 213.634 58.7419C213.63 58.6748 213.626 58.6115 213.626 58.5483V58.3468C213.626 58.0347 213.638 57.7147 213.662 57.3947C213.685 57.0747 213.725 56.7389 213.78 56.3952C213.709 56.3399 213.614 56.3123 213.496 56.3123H212.145C212.022 56.5414 211.908 56.7666 211.797 56.9918C211.69 57.217 211.6 57.4422 211.52 57.6713C211.434 57.9123 211.362 58.1572 211.311 58.3982C211.256 58.6392 211.224 58.8683 211.208 59.0817H211.216ZM214.183 54.4673C214.203 54.3962 214.227 54.2975 214.254 54.171C214.282 54.0446 214.31 53.9142 214.333 53.772C214.207 53.8194 214.065 53.9024 213.907 54.0249C213.749 54.1473 213.591 54.3014 213.425 54.4831C213.259 54.6649 213.089 54.8703 212.919 55.0994C212.749 55.3286 212.583 55.5696 212.425 55.8263C212.856 55.7829 213.346 55.7592 213.891 55.7592C213.93 55.5419 213.978 55.3286 214.025 55.1152C214.073 54.9019 214.128 54.6846 214.183 54.4634V54.4673Z" fill="#CAA593"/>
<path d="M221.026 54.2658C221.026 54.5107 220.97 54.7438 220.86 54.9611C220.749 55.1784 220.595 55.372 220.401 55.5458C220.208 55.7196 219.979 55.8618 219.718 55.9804C219.457 56.0989 219.173 56.1779 218.865 56.2174C218.94 56.4465 219.034 56.6836 219.145 56.9285C219.256 57.1735 219.374 57.4065 219.501 57.6317C219.627 57.8569 219.761 58.0663 219.9 58.2559C220.038 58.4456 220.172 58.6036 220.307 58.726C220.283 58.7774 220.243 58.8288 220.196 58.8801C220.148 58.9315 220.089 58.9789 220.026 59.0223C219.963 59.0658 219.896 59.1014 219.828 59.129C219.761 59.1567 219.694 59.1725 219.631 59.1725C219.516 59.1725 219.41 59.1172 219.307 59.0105C219.204 58.9038 219.102 58.734 218.995 58.5009C218.888 58.2678 218.782 57.9675 218.663 57.5962C218.548 57.2248 218.422 56.7784 218.284 56.2569H218.114C218.059 56.2569 218.015 56.253 217.984 56.2411C217.948 56.2214 217.908 56.1858 217.869 56.1344C217.731 56.4307 217.608 56.7112 217.502 56.972C217.395 57.2327 217.3 57.4856 217.213 57.7305C217.13 57.9754 217.055 58.2085 216.992 58.4377C216.929 58.6668 216.873 58.8959 216.826 59.133C216.652 59.0935 216.502 59.0184 216.372 58.9117C216.245 58.8051 216.123 58.6549 216.012 58.4574C216.032 58.41 216.056 58.3665 216.079 58.3231C216.103 58.2796 216.131 58.2164 216.166 58.1374C216.202 58.0584 216.245 57.9557 216.301 57.8332C216.356 57.7107 216.427 57.5448 216.514 57.3394C216.605 57.1339 216.711 56.8851 216.838 56.5848C216.964 56.2846 217.114 55.9251 217.296 55.5023C217.379 55.3127 217.45 55.1468 217.506 55.0046C217.565 54.8623 217.616 54.7241 217.664 54.5937C217.711 54.4633 217.75 54.333 217.79 54.2026C217.829 54.0722 217.869 53.9221 217.909 53.7522C217.671 53.8352 217.454 53.926 217.253 54.0248C217.051 54.1236 216.881 54.2302 216.751 54.3448C216.704 54.3132 216.656 54.2697 216.609 54.2065C216.561 54.1433 216.514 54.0762 216.474 54.0051C216.435 53.9339 216.399 53.8549 216.368 53.7799C216.336 53.7048 216.32 53.6337 216.312 53.5744C216.467 53.4717 216.656 53.3769 216.877 53.29C217.099 53.2031 217.336 53.128 217.589 53.0648C217.841 53.0016 218.094 52.9502 218.359 52.9147C218.62 52.8791 218.865 52.8594 219.09 52.8594C219.706 52.8594 220.18 52.9858 220.52 53.2386C220.86 53.4915 221.026 53.8391 221.026 54.2776V54.2658ZM219.153 53.6218C219.117 53.6692 219.062 53.7601 218.983 53.8984C218.904 54.0367 218.817 54.2026 218.718 54.3922C218.62 54.5858 218.513 54.7912 218.402 55.0164C218.292 55.2416 218.185 55.4628 218.082 55.6841C218.466 55.6841 218.821 55.6485 219.141 55.5774C219.465 55.5063 219.742 55.4036 219.979 55.2732C220.216 55.1428 220.397 54.9888 220.528 54.811C220.658 54.6332 220.725 54.4396 220.725 54.2223C220.725 53.9655 220.634 53.772 220.449 53.6337C220.263 53.4954 219.979 53.4283 219.595 53.4283C219.508 53.4283 219.422 53.4283 219.335 53.4401C219.248 53.448 219.157 53.4559 219.058 53.4678L219.149 53.6139L219.153 53.6218Z" fill="#CAA593"/>
<path d="M222.317 53.8431C222.112 53.8431 221.954 53.7838 221.843 53.6692C221.733 53.5547 221.677 53.4124 221.677 53.2505C221.677 53.211 221.685 53.1596 221.697 53.1043C221.709 53.049 221.725 52.9976 221.749 52.9581C221.816 52.9739 221.915 52.9897 222.045 52.9937C222.175 53.0016 222.329 53.0055 222.503 53.0055H223.392C223.724 53.0055 224.04 52.9897 224.34 52.9581C224.64 52.9265 224.909 52.8989 225.138 52.8712C225.367 52.8436 225.518 52.8278 225.585 52.8278C225.774 52.8278 225.913 52.8989 225.996 53.0411C226.078 53.1833 226.142 53.369 226.185 53.606C226.051 53.5902 225.92 53.5823 225.79 53.5823H224.96C224.795 53.5823 224.625 53.5942 224.459 53.6139C224.388 53.7641 224.309 53.9379 224.222 54.1433C224.135 54.3448 224.048 54.5581 223.965 54.7794C223.882 55.0006 223.799 55.2179 223.724 55.4391C223.645 55.6564 223.582 55.8539 223.522 56.0278C223.408 56.3675 223.309 56.6796 223.226 56.968C223.143 57.2564 223.068 57.5251 223.005 57.7739C222.942 58.0228 222.886 58.2599 222.839 58.485C222.792 58.7102 222.752 58.9315 222.717 59.1488C222.373 59.0974 222.088 58.8841 221.855 58.5048C221.895 58.3468 221.946 58.173 222.005 57.9873C222.065 57.8016 222.132 57.5883 222.215 57.3512C222.294 57.1142 222.389 56.8416 222.495 56.5413C222.602 56.2411 222.724 55.8974 222.863 55.5102C222.914 55.368 222.969 55.2179 223.025 55.0599C223.08 54.9018 223.135 54.7478 223.191 54.5937C223.246 54.4396 223.293 54.2934 223.337 54.1473C223.38 54.005 223.416 53.8747 223.447 53.7562C223.234 53.7799 223.029 53.8036 222.835 53.8233C222.641 53.8431 222.472 53.851 222.325 53.851L222.317 53.8431Z" fill="#CAA593"/>
<path d="M228.311 58.0505C228.311 57.8332 228.346 57.5567 228.417 57.2169C228.488 56.8772 228.583 56.5177 228.702 56.1305C228.362 56.1582 228.026 56.1937 227.682 56.2372C227.343 56.2806 227.046 56.3004 226.794 56.3004C226.564 56.8377 226.379 57.3355 226.244 57.7898C226.11 58.2441 226.003 58.6866 225.924 59.1172C225.731 59.0698 225.569 58.9908 225.442 58.8762C225.316 58.7616 225.197 58.6155 225.091 58.4416C225.13 58.3587 225.178 58.2559 225.233 58.1256C225.288 57.9992 225.352 57.8411 225.427 57.6594C225.502 57.4777 225.585 57.2643 225.679 57.0234C225.774 56.7784 225.885 56.4979 226.007 56.174C225.837 56.1029 225.727 56.0041 225.668 55.8737C225.691 55.854 225.751 55.8303 225.841 55.8066C225.932 55.7829 226.043 55.7592 226.177 55.7354L226.276 55.4905C226.383 55.214 226.474 54.9809 226.541 54.7913C226.608 54.6016 226.667 54.4159 226.718 54.2342C226.77 54.0525 226.813 53.851 226.857 53.6298C226.9 53.4085 226.952 53.132 227.015 52.7922C227.228 52.8317 227.426 52.9266 227.603 53.0767C227.781 53.2268 227.931 53.4046 228.062 53.614C228.014 53.6772 227.959 53.768 227.892 53.8905C227.825 54.013 227.754 54.1591 227.675 54.333C227.596 54.5068 227.509 54.6964 227.418 54.9098C227.327 55.1231 227.224 55.3483 227.117 55.5814C227.434 55.5379 227.757 55.4984 228.081 55.4589C228.405 55.4194 228.694 55.3996 228.947 55.3996C229.037 55.131 229.136 54.8703 229.235 54.6174C229.334 54.3646 229.433 54.1315 229.531 53.9182C229.63 53.7088 229.721 53.5231 229.812 53.3611C229.903 53.2031 229.982 53.0846 230.053 53.0056C230.104 53.0095 230.171 53.0293 230.254 53.0648C230.337 53.0964 230.424 53.1399 230.511 53.1833C230.598 53.2308 230.677 53.2782 230.748 53.3335C230.819 53.3888 230.867 53.4362 230.894 53.4836C230.803 53.5705 230.709 53.6811 230.618 53.8233C230.527 53.9616 230.436 54.1196 230.345 54.3014C230.254 54.4791 230.167 54.6767 230.08 54.8861C229.994 55.0954 229.911 55.3127 229.836 55.5379C229.938 55.6288 229.99 55.7473 229.99 55.8856C229.99 55.9843 229.97 56.0713 229.926 56.1542C229.879 56.1424 229.836 56.1345 229.788 56.1345C229.741 56.1345 229.693 56.1345 229.642 56.1266C229.555 56.4031 229.476 56.6757 229.405 56.9483C229.334 57.2169 229.275 57.4777 229.223 57.7226C229.176 57.9676 229.136 58.1927 229.109 58.3982C229.081 58.6036 229.065 58.7735 229.065 58.9117C229.065 58.9631 229.065 59.0026 229.065 59.0342C229.065 59.0658 229.073 59.0895 229.077 59.1093C228.962 59.1093 228.883 59.0935 228.832 59.0579C228.781 59.0263 228.741 58.9868 228.717 58.9513C228.69 58.9118 228.67 58.8722 228.65 58.8367C228.631 58.8011 228.595 58.7695 228.552 58.7498C228.516 58.734 228.484 58.6984 228.453 58.6431C228.421 58.5878 228.397 58.5206 228.378 58.4495C228.358 58.3784 228.342 58.3073 228.33 58.2322C228.318 58.1611 228.315 58.1019 228.315 58.0545L228.311 58.0505Z" fill="#CAA593"/>
<path d="M270.499 58.738C270.472 58.5287 270.456 58.2995 270.44 58.0506C270.424 57.8017 270.42 57.5726 270.42 57.3553C270.42 57.0116 270.432 56.6837 270.456 56.3677C270.479 56.0516 270.507 55.7237 270.539 55.3761C270.57 55.0284 270.61 54.6531 270.649 54.2462C270.689 53.8393 270.724 53.3691 270.756 52.8358C270.823 52.8358 270.918 52.8556 271.044 52.8951C271.171 52.9346 271.297 52.978 271.424 53.0294C271.55 53.0808 271.665 53.1321 271.763 53.1874C271.862 53.2427 271.917 53.2862 271.933 53.3217C271.846 53.5193 271.767 53.784 271.7 54.1079C271.633 54.4319 271.574 54.7874 271.526 55.1706C271.479 55.5538 271.443 55.9489 271.42 56.3558C271.396 56.7588 271.38 57.138 271.38 57.4936C271.38 57.6595 271.38 57.8175 271.388 57.9756C271.392 58.1336 271.4 58.2798 271.412 58.4141C271.518 58.2561 271.645 58.0269 271.783 57.7346C271.921 57.4422 272.072 57.1104 272.222 56.7469C272.372 56.3835 272.522 56.0042 272.676 55.6052C272.826 55.2101 272.968 54.8309 273.095 54.4674C273.221 54.104 273.332 53.78 273.423 53.4916C273.513 53.2032 273.577 52.982 273.612 52.8358C273.679 52.8358 273.778 52.8556 273.909 52.8951C274.039 52.9346 274.165 52.978 274.292 53.0294C274.418 53.0808 274.529 53.1321 274.628 53.1874C274.726 53.2427 274.778 53.2862 274.79 53.3217C274.703 53.5193 274.624 53.784 274.556 54.1079C274.489 54.4319 274.43 54.7874 274.383 55.1706C274.335 55.5538 274.3 55.9489 274.276 56.3558C274.252 56.7588 274.236 57.138 274.236 57.4936C274.236 57.6437 274.236 57.7899 274.236 57.9361C274.236 58.0822 274.244 58.2126 274.256 58.3311C274.418 57.9045 274.592 57.4857 274.766 57.0669C274.944 56.6482 275.117 56.2492 275.291 55.8699C275.465 55.4906 275.635 55.1311 275.797 54.8032C275.963 54.4714 276.113 54.179 276.251 53.9183C276.39 53.6615 276.508 53.4442 276.611 53.2783C276.714 53.1084 276.793 52.9978 276.848 52.9385C276.966 52.9543 277.089 52.9978 277.211 53.065C277.338 53.1361 277.448 53.223 277.547 53.3296C277.397 53.4482 277.231 53.6417 277.041 53.9104C276.852 54.179 276.658 54.4911 276.457 54.8427C276.259 55.1943 276.058 55.5736 275.852 55.9726C275.647 56.3716 275.461 56.7627 275.287 57.142C275.114 57.5213 274.959 57.8729 274.821 58.2008C274.687 58.5287 274.58 58.7934 274.509 58.9909C274.375 59.0541 274.244 59.0818 274.118 59.0818C273.952 59.062 273.798 59.0185 273.652 58.9593C273.506 58.8961 273.403 58.825 273.34 58.738C273.324 58.6551 273.312 58.5603 273.3 58.4496C273.288 58.339 273.284 58.2324 273.276 58.1217C273.273 58.0151 273.269 57.9124 273.265 57.8096C273.265 57.7109 273.265 57.624 273.265 57.5529C273.265 57.0985 273.28 56.6324 273.32 56.1583C273.359 55.6842 273.399 55.1746 273.45 54.6333C273.332 54.981 273.201 55.3563 273.059 55.7553C272.917 56.1543 272.767 56.5494 272.609 56.9405C272.451 57.3316 272.293 57.7069 272.131 58.0625C271.969 58.418 271.811 58.7262 271.657 58.9869C271.522 59.0501 271.392 59.0778 271.266 59.0778C271.1 59.058 270.946 59.0146 270.799 58.9553C270.653 58.8921 270.551 58.821 270.487 58.7341L270.499 58.738Z" fill="#CAA593"/>
<path d="M277.081 59.0815C276.836 59.0104 276.666 58.9393 276.571 58.8682C276.477 58.7971 276.429 58.7062 276.429 58.5996C276.429 58.5166 276.453 58.402 276.496 58.2519C276.544 58.1018 276.611 57.928 276.698 57.7265C276.789 57.525 276.895 57.2998 277.022 57.0549C277.148 56.8099 277.29 56.5452 277.448 56.2608H276.832C276.864 56.1818 276.951 56.1186 277.093 56.0593C277.235 56.004 277.425 55.9526 277.662 55.9131C277.863 55.5773 278.077 55.2613 278.302 54.9571C278.527 54.6529 278.76 54.3764 278.989 54.1196C279.218 53.8667 279.451 53.6415 279.681 53.448C279.91 53.2544 280.131 53.1043 280.34 52.9897C280.344 52.9541 280.348 52.9225 280.352 52.8988C280.352 52.8712 280.352 52.8554 280.352 52.8435C280.423 52.8435 280.518 52.8633 280.641 52.8988C280.759 52.9344 280.878 52.9778 280.992 53.0292C281.107 53.0805 281.209 53.1319 281.3 53.1872C281.391 53.2425 281.439 53.286 281.45 53.3215C281.281 53.6178 281.115 54.0642 280.953 54.6529C280.791 55.2455 280.652 55.9526 280.546 56.7783C280.522 56.9838 280.498 57.2169 280.479 57.4776C280.459 57.7383 280.451 58.0307 280.451 58.3546V58.7023C280.451 58.8208 280.455 58.9433 280.467 59.0697C280.455 59.0736 280.447 59.0776 280.435 59.0776H280.372C280.301 59.0776 280.218 59.0657 280.123 59.042C280.028 59.0183 279.937 58.9907 279.846 58.9591C279.756 58.9275 279.681 58.888 279.617 58.8485C279.554 58.809 279.515 58.7734 279.499 58.7418C279.495 58.6746 279.491 58.6114 279.491 58.5482V58.3467C279.491 58.0346 279.503 57.7146 279.526 57.3946C279.55 57.0746 279.59 56.7388 279.645 56.3951C279.574 56.3398 279.479 56.3122 279.361 56.3122H278.009C277.887 56.5413 277.772 56.7665 277.662 56.9917C277.555 57.2168 277.464 57.442 277.385 57.6712C277.298 57.9122 277.227 58.1571 277.176 58.3981C277.121 58.6391 277.089 58.8682 277.073 59.0815H277.081ZM280.048 54.4672C280.068 54.3961 280.091 54.2973 280.119 54.1709C280.147 54.0445 280.174 53.9141 280.198 53.7719C280.072 53.8193 279.929 53.9023 279.771 54.0247C279.613 54.1472 279.455 54.3013 279.289 54.483C279.124 54.6647 278.954 54.8702 278.784 55.0993C278.614 55.3285 278.448 55.5694 278.29 55.8262C278.721 55.7828 279.21 55.7591 279.756 55.7591C279.795 55.5418 279.843 55.3284 279.89 55.1151C279.937 54.9018 279.993 54.6845 280.048 54.4633V54.4672Z" fill="#CAA593"/>
<path d="M282.877 53.8431C282.671 53.8431 282.513 53.7838 282.403 53.6692C282.292 53.5547 282.237 53.4124 282.237 53.2505C282.237 53.211 282.244 53.1596 282.256 53.1043C282.268 53.049 282.284 52.9976 282.308 52.9581C282.375 52.9739 282.474 52.9897 282.604 52.9937C282.734 53.0016 282.888 53.0055 283.062 53.0055H283.951C284.283 53.0055 284.599 52.9897 284.899 52.9581C285.2 52.9265 285.468 52.8989 285.697 52.8712C285.926 52.8436 286.077 52.8278 286.144 52.8278C286.333 52.8278 286.472 52.8989 286.555 53.0411C286.638 53.1833 286.701 53.369 286.744 53.606C286.61 53.5902 286.48 53.5823 286.349 53.5823H285.52C285.354 53.5823 285.184 53.5942 285.018 53.6139C284.947 53.7641 284.868 53.9379 284.781 54.1433C284.694 54.3448 284.607 54.5581 284.524 54.7794C284.441 55.0006 284.358 55.2179 284.283 55.4391C284.204 55.6564 284.141 55.8539 284.082 56.0278C283.967 56.3675 283.868 56.6796 283.785 56.968C283.702 57.2564 283.627 57.5251 283.564 57.7739C283.501 58.0228 283.445 58.2599 283.398 58.485C283.351 58.7102 283.311 58.9315 283.276 59.1488C282.932 59.0974 282.647 58.8841 282.414 58.5048C282.454 58.3468 282.505 58.173 282.564 57.9873C282.624 57.8016 282.691 57.5883 282.774 57.3512C282.853 57.1142 282.948 56.8416 283.054 56.5413C283.161 56.2411 283.283 55.8974 283.422 55.5102C283.473 55.368 283.528 55.2179 283.584 55.0599C283.639 54.9018 283.694 54.7478 283.75 54.5937C283.805 54.4396 283.852 54.2934 283.896 54.1473C283.939 54.005 283.975 53.8747 284.006 53.7562C283.793 53.7799 283.588 53.8036 283.394 53.8233C283.201 53.8431 283.031 53.851 282.884 53.851L282.877 53.8431Z" fill="#CAA593"/>
<path d="M289.043 55.2258C289.213 55.2258 289.344 55.2732 289.438 55.3641C289.533 55.455 289.581 55.5853 289.581 55.7473C289.581 55.7868 289.581 55.8303 289.569 55.8737C289.561 55.9172 289.553 55.9527 289.541 55.9843C289.474 55.9725 289.399 55.9646 289.32 55.9567C289.237 55.9488 289.142 55.9448 289.028 55.9448C288.806 55.9448 288.585 55.9646 288.36 56.0041C288.135 56.0436 287.921 56.0752 287.716 56.0989C287.597 56.3715 287.491 56.6322 287.392 56.889C287.293 57.1419 287.21 57.375 287.143 57.5843C287.076 57.7937 287.021 57.9755 286.981 58.1295C286.942 58.2836 286.922 58.3982 286.914 58.4772C287.329 58.3824 287.748 58.3034 288.17 58.2362C288.593 58.169 289.035 58.1374 289.502 58.1374C289.557 58.2204 289.604 58.3152 289.644 58.414C289.683 58.5127 289.703 58.6194 289.703 58.734V58.8327C289.703 58.8683 289.699 58.9038 289.687 58.9355H288.131C287.981 58.9355 287.827 58.9434 287.672 58.9592C287.518 58.975 287.356 58.9987 287.187 59.0263C287.017 59.054 286.823 59.0856 286.606 59.1251C286.369 59.0342 286.144 58.809 285.922 58.4495C286.009 58.2638 286.132 57.9834 286.286 57.608C286.44 57.2327 286.641 56.7271 286.882 56.095C286.653 56.0238 286.499 55.8935 286.428 55.7117C286.452 55.688 286.527 55.6525 286.649 55.6169C286.772 55.5774 286.922 55.5379 287.104 55.4984C287.179 55.2969 287.246 55.1231 287.301 54.9769C287.356 54.8268 287.404 54.6885 287.443 54.5582C287.483 54.4278 287.522 54.3014 287.554 54.175C287.586 54.0485 287.621 53.9142 287.649 53.7641C287.471 53.7641 287.329 53.7206 287.226 53.6298C287.123 53.5389 287.072 53.4204 287.072 53.2742C287.072 53.2308 287.08 53.1833 287.092 53.1241C287.104 53.0648 287.119 53.0174 287.135 52.974C287.238 52.9819 287.337 52.9858 287.432 52.9858H288.712C288.992 52.9858 289.249 52.974 289.478 52.9463C289.707 52.9187 289.901 52.895 290.067 52.8712C290.232 52.8475 290.355 52.8357 290.442 52.8357C290.56 52.8357 290.663 52.8989 290.758 53.0214C290.853 53.1438 290.92 53.3177 290.967 53.5429C290.809 53.5231 290.679 53.5112 290.58 53.5112H290.315C290.035 53.5112 289.778 53.527 289.545 53.5547C289.312 53.5824 289.087 53.61 288.873 53.6416C288.842 53.689 288.806 53.7483 288.771 53.8194C288.731 53.8905 288.684 53.9893 288.621 54.1196C288.557 54.2461 288.482 54.408 288.395 54.6016C288.309 54.7952 288.198 55.0362 288.068 55.3285C288.261 55.2969 288.447 55.2732 288.617 55.2574C288.787 55.2416 288.933 55.2298 289.051 55.2298L289.043 55.2258Z" fill="#CAA593"/>
<path d="M295.771 54.2658C295.771 54.5107 295.716 54.7438 295.605 54.9611C295.495 55.1784 295.341 55.372 295.147 55.5458C294.954 55.7196 294.724 55.8618 294.464 55.9804C294.203 56.0989 293.919 56.1779 293.61 56.2174C293.685 56.4465 293.78 56.6836 293.891 56.9285C294.002 57.1735 294.12 57.4065 294.246 57.6317C294.373 57.8569 294.507 58.0663 294.645 58.2559C294.784 58.4456 294.918 58.6036 295.052 58.726C295.029 58.7774 294.989 58.8288 294.942 58.8801C294.894 58.9315 294.835 58.9789 294.772 59.0223C294.709 59.0658 294.642 59.1014 294.574 59.129C294.507 59.1567 294.44 59.1725 294.377 59.1725C294.262 59.1725 294.156 59.1172 294.053 59.0105C293.95 58.9038 293.847 58.734 293.741 58.5009C293.634 58.2678 293.527 57.9675 293.409 57.5962C293.294 57.2248 293.168 56.7784 293.03 56.2569H292.86C292.804 56.2569 292.761 56.253 292.729 56.2411C292.694 56.2214 292.654 56.1858 292.615 56.1344C292.477 56.4307 292.354 56.7112 292.247 56.972C292.141 57.2327 292.046 57.4856 291.959 57.7305C291.876 57.9754 291.801 58.2085 291.738 58.4377C291.675 58.6668 291.619 58.8959 291.572 59.133C291.398 59.0935 291.248 59.0184 291.118 58.9117C290.991 58.8051 290.869 58.6549 290.758 58.4574C290.778 58.41 290.802 58.3665 290.825 58.3231C290.849 58.2796 290.877 58.2164 290.912 58.1374C290.948 58.0584 290.991 57.9557 291.046 57.8332C291.102 57.7107 291.173 57.5448 291.26 57.3394C291.351 57.1339 291.457 56.8851 291.584 56.5848C291.71 56.2846 291.86 55.9251 292.042 55.5023C292.125 55.3127 292.196 55.1468 292.251 55.0046C292.311 54.8623 292.362 54.7241 292.409 54.5937C292.457 54.4633 292.496 54.333 292.536 54.2026C292.575 54.0722 292.615 53.9221 292.654 53.7522C292.417 53.8352 292.2 53.926 291.999 54.0248C291.797 54.1236 291.627 54.2302 291.497 54.3448C291.449 54.3132 291.402 54.2697 291.355 54.2065C291.307 54.1433 291.26 54.0762 291.22 54.0051C291.181 53.9339 291.145 53.8549 291.114 53.7799C291.082 53.7048 291.066 53.6337 291.058 53.5744C291.212 53.4717 291.402 53.3769 291.623 53.29C291.844 53.2031 292.082 53.128 292.334 53.0648C292.587 53.0016 292.84 52.9502 293.105 52.9147C293.365 52.8791 293.61 52.8594 293.836 52.8594C294.452 52.8594 294.926 52.9858 295.266 53.2386C295.605 53.4915 295.771 53.8391 295.771 54.2776V54.2658ZM293.899 53.6218C293.863 53.6692 293.808 53.7601 293.729 53.8984C293.65 54.0367 293.563 54.2026 293.464 54.3922C293.365 54.5858 293.259 54.7912 293.148 55.0164C293.038 55.2416 292.931 55.4628 292.828 55.6841C293.211 55.6841 293.567 55.6485 293.887 55.5774C294.211 55.5063 294.487 55.4036 294.724 55.2732C294.962 55.1428 295.143 54.9888 295.274 54.811C295.404 54.6332 295.471 54.4396 295.471 54.2223C295.471 53.9655 295.38 53.772 295.195 53.6337C295.009 53.4954 294.724 53.4283 294.341 53.4283C294.254 53.4283 294.167 53.4283 294.081 53.4401C293.994 53.448 293.903 53.4559 293.804 53.4678L293.895 53.6139L293.899 53.6218Z" fill="#CAA593"/>
</g>
<defs>
<clipPath id="clip0_1063_180">
<rect width="305" height="59.1685" fill="white"/>
</clipPath>
</defs>
</svg>
